<?xml version="1.0" encoding="UTF-8"?>
<svg enable-background="new 0 0 2602.652 1545.355" version="1.1" viewBox="0 0 2602.652 1545.355" xmlns="http://www.w3.org/2000/svg">
 <path d="m2118.8 521.66c189.39 34.204 347.78 89.099 462.49 173.14h-52.822c-119.05-58.32-263.48-96.072-426.98-118.35-6.545-0.892-13.178 0.454-18.974 3.623-43.69 23.886-89.916 31.396-139.78 33.737-38.273 1.797-82.755 38.736-83.929 49.301-25.872 232.87-90.714 347.02-248.85 404.38-122.03 32.849-236.12 81.926-344.52 142.62 1.652 102.37-3.909 169.35-13.73 215.44-0.61 2.861-4.603 3.103-5.556 0.337-14.821-42.99-14.964-104.48-7.712-175.28-8.786 97.597-20.905 179.43-37.03 242.32-0.713 2.779-4.416 3.372-5.924 0.931-18.906-30.605-12.689-108.49 15.955-228.58-20.639 56.651-38.642 110.13-46.366 158.47-8.109 50.749-15.507 92.415-28.863 106.68-2.894 3.092-7.897 2.996-10.666-0.208-13.057-15.108-15.574-48.944-3.316-96.499 14.139-54.853 37.65-110.73 60.452-169.62-28.38 60.297-54.956 113.32-78.519 154.2-1.072 1.86-3.807 1.711-4.68-0.251-5.052-11.356-7.732-25.609-1.904-41.259 13.059-35.068 40.73-82.641 59.278-112.69-19.08 21.682-37.195 43.188-54.196 64.491-1.198 1.501-3.63 0.647-3.606-1.274 0.384-31.522 40.186-71.297 68.367-118.97 26.878-45.473 30.054-102.39 30.52-160.23 2.164-77.06 22.334-144.35 60.452-201.9-15.598 17.833-31.348 29.446-47.288 33.339-4.019 0.982-7.86-2.378-7.243-6.469 6.081-40.308 54.452-88.427 103.24-136.62-61.114 61.153-122.45 111.14-184.08 146.94-2.556 1.485-5.491-1.206-4.24-3.883 26.202-56.068 90.03-105.28 155.45-154.21-31.663 28.83-68.261 50.098-104.69 74.611-40.581 27.306-68.689 61.965-120.17 69.883-3.425 0.527-5.836-3.329-3.845-6.165 30.256-54.914 113.43-107.37 192.9-151.83-102.82 55.831-208.14 117.35-261.68 131.97-4.344 1.186-8.491-2.677-7.38-7.041 8.879-34.877 102.65-82.679 213.9-133.14-99.298 41.374-211.55 89.496-250.02 99.188-15.845 4.793-28.762 5.357-40.357 4.011-5.145-0.597-7.573-6.807-4.114-10.663 33.696-37.563 172.6-76.769 276.3-115.42-106.76 30.666-208.85 62.593-274.38 79.6-15.418 2.643-35.953 3.499-55.152 0.288-4.74-0.793-6.303-6.765-2.665-9.905 39.228-33.864 164.57-63.344 300.5-92.285-163.39 31.847-320.23 63.159-416.79 89.541-3.461 0.946-6.976 1.693-10.537 2.125-26.212 3.18-56.008 3.6-87.441 2.758-5.026-0.135-6.79-6.752-2.47-9.324 14.792-8.809 41.295-22.065 76.471-29.342 153.18-31.693 374.68-83.688 376.21-86.276 2.056-3.464-438.68 77.998-540.35 101.07-18.503 4.199-37.384 6.502-56.355 6.795-21.017 0.324-40.087-0.159-54.213-2.693-5.335-0.957-6.133-8.289-1.129-10.37 100.04-41.598 375.09-85.447 615.07-128.84-243.66 27.927-473.47 64.191-676.12 116.79-37.161 6.19-70.361 5.62-98.569-3.465-4.826-1.554-5.371-8.178-0.912-10.591 90.047-48.739 442.77-91.223 715.74-135.61-263.21 22.613-125.75-13.939-739.51 113.86-29.516 6.474-63.873 6.23-100.26 3.166-7.596-0.639-9.747-10.707-3.073-14.391 105.41-58.182 503.02-95.618 800-140.2-87.345-23.106-486.36 59.392-822.26 119.73-29.734 5.341-57.107 1.709-80.929-5.383-5.87-1.747-6.283-9.956-0.628-12.307 194.35-80.82 489.12-117.55 802.87-139.6-10.037-9.07-15.402-18.46 1.174-29.346 50.674-9.108 131.56-12.13 217.74-14.086-119.44-1.285-228.3-8.463-312.1-29.586-5.739-1.447-6.024-9.45-0.429-11.379 50.227-17.314 151.45-22.407 286.12-19.487-164.36-6.415-303.11-19.263-373.81-49.198-5.942-2.516-5.138-11.188 1.179-12.501 89.912-18.689 199.64-14.585 318.04-0.514-153.84-17.203-288.16-40.386-381.67-76.081-6.492-2.478-5.388-11.994 1.495-12.946 85.819-11.881 192-2.167 309.16 19.185-149.81-21.833-276.88-59.085-370.19-119.23-3.961-2.553-2.108-8.715 2.603-8.601 87.89 2.122 207.68 28.202 348.81 70.31-181.45-61.541-308.32-116.54-371.55-163.91-6.619-4.959-3.261-15.564 5.007-15.768 138.14-3.412 396.6 131.97 642.98 237.2 118.67 50.685 220.01 108.16 299.33 180.18 34.908 31.697 41.209 90.608 71.016 112.1 17.012 12.266 52.529 11.445 59.278 1.761 89.96-129.07 157.11-215.42 268.22-216.57 95.165-0.983 184.4 56.63 268.22 194.27z"/>
</svg>
